#N canvas 709 23 399 487 10;
#N canvas 40 205 640 751 guts 1;
#X obj 113 114 osc~;
#X obj 258 332 phasor~;
#X obj 30 20 r basefreq;
#X floatatom 30 52 5 0 0 0 - - -;
#X floatatom 120 54 5 0 0 0 - - -;
#X obj 107 20 r lfofreq;
#N canvas 0 22 450 278 (subpatch) 0;
#X array array99 400 float 0;
#X coords 0 1 399 -1 200 100 1 0 0;
#X restore 353 574 graph;
#X obj 151 114 phasor~;
#X obj 360 532 tabwrite~ array99;
#X obj 121 85 sig~;
#X obj 379 481 tgl 15 0 empty empty empty 17 7 0 10 -262144 -1 -1 1
1;
#X obj 381 505 metro 50;
#X obj 277 22 r lfowave;
#X floatatom 278 49 5 0 0 0 - - -;
#X obj 206 56 * -1;
#X obj 207 84 sig~;
#X obj 208 113 phasor~;
#X obj 124 360 osc~;
#X obj 278 75 sel 0 1 2;
#X obj 190 216 *~ 0;
#X obj 261 221 *~ 0;
#X obj 126 219 *~ 0;
#X obj 299 114 bng 15 250 50 0 empty empty empty 17 7 0 10 -262144
-1 -1;
#X obj 324 112 bng 15 250 50 0 empty empty empty 17 7 0 10 -262144
-1 -1;
#X obj 273 112 bng 15 250 50 0 empty empty empty 17 7 0 10 -262144
-1 -1;
#X msg 250 156 1;
#X msg 327 156 1;
#X msg 176 159 1;
#X msg 141 160 0;
#X msg 216 158 0;
#X msg 290 157 0;
#X floatatom 311 188 5 0 0 0 - - -;
#X floatatom 235 185 5 0 0 0 - - -;
#X floatatom 163 188 5 0 0 0 - - -;
#X obj 106 139 +~ 1;
#X obj 106 184 *~ 0.5;
#X obj 382 20 r lforange;
#X floatatom 380 49 5 0 0 0 - - -;
#X obj 272 298 *~ 0;
#X obj 30 82 sig~;
#X obj 40 326 +~;
#X obj 40 357 snapshot~;
#X floatatom 41 383 5 0 0 0 - - -;
#X obj 490 479 loadbang;
#X obj 492 506 delay 500;
#X msg 491 535 1;
#X obj 41 410 s freqout;
#X obj 192 331 *~ 2;
#X obj 193 359 osc~;
#N canvas 0 22 450 278 (subpatch) 0;
#X array array98 400 float 0;
#X coords 0 1 399 0 200 100 1 0 0;
#X restore 381 281 graph;
#X obj 388 239 tabwrite~ array98;
#X obj 393 199 *~ 1;
#X obj 46 562 env~;
#X obj 46 589 - 100;
#X floatatom 46 618 5 0 0 0 - - -;
#X obj 46 642 s vu;
#X obj 136 474 *~ 0;
#X floatatom 158 448 5 0 0 0 - - -;
#X obj 158 424 r osc1;
#X obj 207 474 *~ 0;
#X floatatom 229 448 5 0 0 0 - - -;
#X obj 277 475 *~ 0;
#X floatatom 299 449 5 0 0 0 - - -;
#X obj 229 424 r osc2;
#X obj 299 425 r osc3;
#X obj 155 540 clip~ -1 1;
#X obj 258 358 *~ 2;
#X obj 258 384 -~ 1;
#X obj 159 606 dac~ 1 2;
#X obj 478 75 ctlin 113;
#X floatatom 483 110 5 0 0 0 - - -;
#X connect 0 0 34 0;
#X connect 1 0 66 0;
#X connect 2 0 3 0;
#X connect 3 0 39 0;
#X connect 4 0 9 0;
#X connect 4 0 14 0;
#X connect 5 0 4 0;
#X connect 7 0 19 0;
#X connect 9 0 7 0;
#X connect 9 0 0 0;
#X connect 10 0 11 0;
#X connect 11 0 8 0;
#X connect 11 0 41 0;
#X connect 11 0 50 0;
#X connect 12 0 13 0;
#X connect 13 0 18 0;
#X connect 14 0 15 0;
#X connect 15 0 16 0;
#X connect 16 0 20 0;
#X connect 17 0 56 0;
#X connect 18 0 24 0;
#X connect 18 1 22 0;
#X connect 18 2 23 0;
#X connect 19 0 38 0;
#X connect 19 0 51 0;
#X connect 20 0 38 0;
#X connect 21 0 38 0;
#X connect 21 0 51 0;
#X connect 22 0 28 0;
#X connect 22 0 25 0;
#X connect 22 0 30 0;
#X connect 23 0 28 0;
#X connect 23 0 29 0;
#X connect 23 0 26 0;
#X connect 24 0 27 0;
#X connect 24 0 29 0;
#X connect 24 0 30 0;
#X connect 25 0 32 0;
#X connect 26 0 31 0;
#X connect 27 0 33 0;
#X connect 28 0 33 0;
#X connect 29 0 32 0;
#X connect 30 0 31 0;
#X connect 31 0 20 1;
#X connect 32 0 19 1;
#X connect 33 0 21 1;
#X connect 34 0 35 0;
#X connect 35 0 21 0;
#X connect 36 0 37 0;
#X connect 37 0 38 1;
#X connect 38 0 40 1;
#X connect 39 0 40 0;
#X connect 40 0 17 0;
#X connect 40 0 41 0;
#X connect 40 0 47 0;
#X connect 40 0 1 0;
#X connect 41 0 42 0;
#X connect 42 0 46 0;
#X connect 43 0 44 0;
#X connect 44 0 45 0;
#X connect 45 0 10 0;
#X connect 47 0 48 0;
#X connect 48 0 59 0;
#X connect 51 0 50 0;
#X connect 52 0 53 0;
#X connect 53 0 54 0;
#X connect 54 0 55 0;
#X connect 56 0 65 0;
#X connect 57 0 56 1;
#X connect 58 0 57 0;
#X connect 59 0 65 0;
#X connect 60 0 59 1;
#X connect 61 0 65 0;
#X connect 62 0 61 1;
#X connect 63 0 60 0;
#X connect 64 0 62 0;
#X connect 65 0 8 0;
#X connect 65 0 52 0;
#X connect 65 0 68 0;
#X connect 65 0 68 1;
#X connect 66 0 67 0;
#X connect 67 0 61 0;
#X connect 69 0 70 0;
#X restore 331 16 pd guts;
#X obj 139 42 vsl 40 250 0 1 0 0 osc3 empty π 10 -20 0 25 -262144
-1 -1 0 1;
#X obj 203 217 vradio 25 1 0 3 lfowave empty empty 0 -8 0 10 -262144
-1 -1 1;
#X obj 200 82 nbx 4 25 -1e+37 1e+37 0 0 empty lfofreq empty 0 -8 0
20 -262144 -1 -1 1.67476 256;
#X obj 39 416 hsl 330 40 0 80 0 0 lforange empty ∆ -25 19 0 30 -262144
-1 -1 18800 1;
#X obj 39 318 hsl 330 40 0 132 0 0 basefreq empty Ω -25 19 0 30 -262144
-1 -1 5500 1;
#X obj 39 367 hsl 330 40 0.1 20 1 0 lfofreq empty ∑ -25 19 0 25 -262144
-1 -1 17500 1;
#X obj 24 42 vsl 40 250 0 1 0 0 osc1 empty μ 10 -20 0 25 -262144 -1
-1 16000 1;
#X obj 80 42 vsl 40 250 0 1 0 0 osc2 empty λ 10 -20 0 25 -262144 -1
-1 0 1;
#X obj 319 46 vu 40 240 vu empty -1 -8 0 10 -66577 -1 0 0;
#X text 236 221 ∞;
#X text 236 248 ≫;
#X text 236 274 ≪;
#X obj 200 43 nbx 4 25 -1e+37 1e+37 0 0 empty freqout empty 0 -8 0
20 -262144 -1 -1 43.7879 256;
